# xmcd CD database file
#
# Track frame offsets:
#	150
#	17155
#	39275
#
# Disc length: 816 seconds
#
# Revision: 2
# Processed by: cddbd v1.5.1PL0 Copyright (c) Steve Scherf et al.
# Submitted via: CDex 1.51
#
DISCID=18032e03
DTITLE=STARDUST REVUE - My pride, your pride
DYEAR=2003
DGENRE=JPop
TTITLE0=My pride, your pride
TTITLE1=Step by step
TTITLE2=Step by step(.INST.)
EXTD=YEAR: 2003
EXTT0=
EXTT1=
EXTT2=
PLAYORDER=
